<svg width="53" height="13" viewBox="0 0 53 13" fill="none" xmlns="http://www.w3.org/2000/svg">
<ellipse cx="7.14293" cy="6.5" rx="6.4381" ry="6.5" fill="#9CD0FA"/>
<path d="M13.181 6.5C13.181 9.87255 10.4741 12.6 7.14293 12.6C3.81178 12.6 1.10483 9.87255 1.10483 6.5C1.10483 3.12745 3.81178 0.4 7.14293 0.4C10.4741 0.4 13.181 3.12745 13.181 6.5Z" stroke="white" stroke-opacity="0.49" stroke-width="0.8"/>
<ellipse cx="26.4572" cy="6.5" rx="6.4381" ry="6.5" fill="#276587" fill-opacity="0.6"/>
<path d="M32.4953 6.5C32.4953 9.87255 29.7883 12.6 26.4572 12.6C23.1261 12.6 20.4191 9.87255 20.4191 6.5C20.4191 3.12745 23.1261 0.4 26.4572 0.4C29.7883 0.4 32.4953 3.12745 32.4953 6.5Z" stroke="white" stroke-opacity="0.49" stroke-width="0.8"/>
<ellipse cx="45.7715" cy="6.5" rx="6.4381" ry="6.5" fill="#276587" fill-opacity="0.6"/>
<path d="M51.8096 6.5C51.8096 9.87255 49.1026 12.6 45.7715 12.6C42.4403 12.6 39.7334 9.87255 39.7334 6.5C39.7334 3.12745 42.4403 0.4 45.7715 0.4C49.1026 0.4 51.8096 3.12745 51.8096 6.5Z" stroke="white" stroke-opacity="0.49" stroke-width="0.8"/>
</svg>
