<svg width="73" height="97" viewBox="0 0 73 97" fill="none" xmlns="http://www.w3.org/2000/svg">
<path d="M15.0596 92.3251L16.7745 83.2605H19.3907L16.5645 96H13.9221L11.8485 87.4778L9.77478 96H7.13238L4.30624 83.2605H6.92239L8.64607 92.3076L10.746 83.2605H12.9684L15.0596 92.3251ZM27.6241 93.3751H23.0218L22.1468 96H19.3557L24.098 83.2605H26.5304L31.299 96H28.5078L27.6241 93.3751ZM23.7305 91.2489H26.9154L25.3142 86.4804L23.7305 91.2489ZM41.0286 85.3867H37.1262V96H34.5013V85.3867H30.6515V83.2605H41.0286V85.3867ZM52.2894 91.7564C52.1903 93.1272 51.6828 94.2063 50.767 94.9938C49.857 95.7813 48.6554 96.175 47.1621 96.175C45.5288 96.175 44.2426 95.6267 43.3035 94.5301C42.3702 93.4276 41.9036 91.9168 41.9036 89.9977V89.219C41.9036 87.9941 42.1194 86.9149 42.551 85.9816C42.9827 85.0483 43.5981 84.3338 44.3972 83.838C45.2022 83.3363 46.1355 83.0855 47.1971 83.0855C48.6671 83.0855 49.8512 83.4792 50.7495 84.2667C51.6478 85.0542 52.1669 86.1595 52.3069 87.5828H49.682C49.6179 86.7604 49.3874 86.1654 48.9908 85.7979C48.6 85.4246 48.0021 85.2379 47.1971 85.2379C46.3221 85.2379 45.6659 85.5529 45.2284 86.1829C44.7968 86.807 44.5751 87.7782 44.5635 89.0965V90.059C44.5635 91.4356 44.7705 92.4418 45.1847 93.0776C45.6047 93.7134 46.2638 94.0313 47.1621 94.0313C47.9729 94.0313 48.5766 93.8476 48.9733 93.4801C49.3758 93.1068 49.6062 92.5322 49.6645 91.7564H52.2894ZM64.3815 96H61.7566V90.5402H56.638V96H54.0131V83.2605H56.638V88.4228H61.7566V83.2605H64.3815V96Z" fill="white"/>
<circle opacity="0.8" cx="34.5" cy="34.5" r="34.5" fill="#FDF5F5"/>
<path d="M51 34.5L26.25 48.7894L26.25 20.2106L51 34.5Z" fill="#3179B7"/>
</svg>
